<!DOCTYPE svg PUBLIC "-//W3C//DTD SVG 1.1//EN" "https://www.w3.org/Graphics/SVG/1.1/DTD/svg11.dtd"><svg xmlns="http://www.w3.org/2000/svg" id="sfn-svg" class="sfn-workflow-graph" width="582" height="1488">
    
    
<g transform="translate(22.78515625,19.61328125)"><g class="nodes"><g class="node-container" transform="translate(119.994140625,18.25)"><g class="node anchor"><circle class="shape" x="-15.86328125" y="-8.25" r="25.86328125"/><text class="label"><tspan xml:space="preserve" text-anchor="middle" alignment-baseline="central">Start</tspan></text></g></g><g class="node-container" transform="translate(250.7734375,1433.3740119934082)"><g class="node anchor"><circle class="shape" x="-12.17578125" y="-8.25" r="22.17578125"/><text class="label"><tspan xml:space="preserve" text-anchor="middle" alignment-baseline="central">End</tspan></text></g></g><g class="node-container" transform="translate(119.994140625,79.75)"><g class="node state Task NotYetStarted"><rect class="shape" rx="5" ry="5" x="-62.42578125" y="-18.25" width="124.8515625" height="36.5"/><text class="label"><tspan xml:space="preserve" text-anchor="middle" alignment-baseline="central">Report Job Start</tspan></text></g></g><g class="node-container" transform="translate(119.994140625,141.25)"><g class="node state Task NotYetStarted"><rect class="shape" rx="5" ry="5" x="-82.01171875" y="-18.25" width="164.0234375" height="36.5"/><text class="label"><tspan xml:space="preserve" text-anchor="middle" alignment-baseline="central">Report Download Step</tspan></text></g></g><g class="node-container" transform="translate(119.994140625,202.75)"><g class="node state Task NotYetStarted"><rect class="shape" rx="5" ry="5" x="-42.1953125" y="-18.25" width="84.390625" height="36.5"/><text class="label"><tspan xml:space="preserve" text-anchor="middle" alignment-baseline="central">Download</tspan></text></g></g><g class="node-container" transform="translate(119.994140625,264.25)"><g class="node state Choice NotYetStarted"><rect class="shape" rx="5" ry="5" x="-84.9296875" y="-18.25" width="169.859375" height="36.5"/><text class="label"><tspan xml:space="preserve" text-anchor="middle" alignment-baseline="central">Check Download Status</tspan></text></g></g><g class="node-container" transform="translate(189.208984375,325.75)"><g class="node state Task NotYetStarted"><rect class="shape" rx="5" ry="5" x="-90.48828125" y="-18.25" width="180.9765625" height="36.5"/><text class="label"><tspan xml:space="preserve" text-anchor="middle" alignment-baseline="central">Report Download Output</tspan></text></g></g><g class="node-container" transform="translate(49.21484375,1310.3740119934082)"><g class="node state Task NotYetStarted"><rect class="shape" rx="5" ry="5" x="-49.21484375" y="-18.25" width="98.4296875" height="36.5"/><text class="label"><tspan xml:space="preserve" text-anchor="middle" alignment-baseline="central">Report Error</tspan></text></g></g><g class="node-container" transform="translate(189.208984375,387.2760009765625)"><g class="node state Task NotYetStarted"><rect class="shape" rx="5" ry="5" x="-100.51171875" y="-18.2760009765625" width="201.0234375" height="36.552001953125"/><text class="label"><tspan xml:space="preserve" text-anchor="middle" alignment-baseline="central">Report glTF Conversion Step</tspan></text></g></g><g class="node-container" transform="translate(189.208984375,448.8280019760132)"><g class="node state Task NotYetStarted"><rect class="shape" rx="5" ry="5" x="-60.6953125" y="-18.276000022888184" width="121.390625" height="36.55200004577637"/><text class="label"><tspan xml:space="preserve" text-anchor="middle" alignment-baseline="central">glTF Conversion</tspan></text></g></g><g class="node-container" transform="translate(189.208984375,510.38000202178955)"><g class="node state Choice NotYetStarted"><rect class="shape" rx="5" ry="5" x="-103.4296875" y="-18.276000022888184" width="206.859375" height="36.55200004577637"/><text class="label"><tspan xml:space="preserve" text-anchor="middle" alignment-baseline="central">Check glTF Conversion Status</tspan></text></g></g><g class="node-container" transform="translate(261.203125,571.9320030212402)"><g class="node state Task NotYetStarted"><rect class="shape" rx="5" ry="5" x="-108.98828125" y="-18.2760009765625" width="217.9765625" height="36.552001953125"/><text class="label"><tspan xml:space="preserve" text-anchor="middle" alignment-baseline="central">Report glTF Conversion Output</tspan></text></g></g><g class="node-container" transform="translate(261.203125,633.4840049743652)"><g class="node state Task NotYetStarted"><rect class="shape" rx="5" ry="5" x="-96.96875" y="-18.2760009765625" width="193.9375" height="36.552001953125"/><text class="label"><tspan xml:space="preserve" text-anchor="middle" alignment-baseline="central">Report glb Conversion Step</tspan></text></g></g><g class="node-container" transform="translate(261.203125,695.0360059738159)"><g class="node state Task NotYetStarted"><rect class="shape" rx="5" ry="5" x="-57.15234375" y="-18.276000022888184" width="114.3046875" height="36.55200004577637"/><text class="label"><tspan xml:space="preserve" text-anchor="middle" alignment-baseline="central">glb Conversion</tspan></text></g></g><g class="node-container" transform="translate(261.203125,756.5880060195923)"><g class="node state Choice NotYetStarted"><rect class="shape" rx="5" ry="5" x="-99.890625" y="-18.276000022888184" width="199.78125" height="36.55200004577637"/><text class="label"><tspan xml:space="preserve" text-anchor="middle" alignment-baseline="central">Check glb Conversion Status</tspan></text></g></g><g class="node-container" transform="translate(338.80859375,818.140007019043)"><g class="node state Task NotYetStarted"><rect class="shape" rx="5" ry="5" x="-105.4453125" y="-18.2760009765625" width="210.890625" height="36.552001953125"/><text class="label"><tspan xml:space="preserve" text-anchor="middle" alignment-baseline="central">Report glb Conversion Output</tspan></text></g></g><g class="node-container" transform="translate(338.80859375,879.692008972168)"><g class="node state Task NotYetStarted"><rect class="shape" rx="5" ry="5" x="-117.2890625" y="-18.2760009765625" width="234.578125" height="36.552001953125"/><text class="label"><tspan xml:space="preserve" text-anchor="middle" alignment-baseline="central">Report glb/draco Conversion Step</tspan></text></g></g><g class="node-container" transform="translate(338.80859375,941.2440099716187)"><g class="node state Task NotYetStarted"><rect class="shape" rx="5" ry="5" x="-77.4765625" y="-18.276000022888184" width="154.953125" height="36.55200004577637"/><text class="label"><tspan xml:space="preserve" text-anchor="middle" alignment-baseline="central">glb/draco Conversion</tspan></text></g></g><g class="node-container" transform="translate(338.80859375,1002.796010017395)"><g class="node state Choice NotYetStarted"><rect class="shape" rx="5" ry="5" x="-120.2109375" y="-18.276000022888184" width="240.421875" height="36.55200004577637"/><text class="label"><tspan xml:space="preserve" text-anchor="middle" alignment-baseline="central">Check glb/draco Conversion Status</tspan></text></g></g><g class="node-container" transform="translate(419.193359375,1064.3480110168457)"><g class="node state Task NotYetStarted"><rect class="shape" rx="5" ry="5" x="-125.76953125" y="-18.2760009765625" width="251.5390625" height="36.552001953125"/><text class="label"><tspan xml:space="preserve" text-anchor="middle" alignment-baseline="central">Report glb/draco Conversion Output</tspan></text></g></g><g class="node-container" transform="translate(419.193359375,1125.8740119934082)"><g class="node state Task NotYetStarted"><rect class="shape" rx="5" ry="5" x="-103.86328125" y="-18.25" width="207.7265625" height="36.5"/><text class="label"><tspan xml:space="preserve" text-anchor="middle" alignment-baseline="central">Report USDz Conversion Step</tspan></text></g></g><g class="node-container" transform="translate(419.193359375,1187.3740119934082)"><g class="node state Task NotYetStarted"><rect class="shape" rx="5" ry="5" x="-64.05078125" y="-18.25" width="128.1015625" height="36.5"/><text class="label"><tspan xml:space="preserve" text-anchor="middle" alignment-baseline="central">USDz Conversion</tspan></text></g></g><g class="node-container" transform="translate(419.193359375,1248.8740119934082)"><g class="node state Choice NotYetStarted"><rect class="shape" rx="5" ry="5" x="-106.78515625" y="-18.25" width="213.5703125" height="36.5"/><text class="label"><tspan xml:space="preserve" text-anchor="middle" alignment-baseline="central">Check USDz Conversion Status</tspan></text></g></g><g class="node-container" transform="translate(434.193359375,1310.3740119934082)"><g class="node state Task NotYetStarted"><rect class="shape" rx="5" ry="5" x="-112.34375" y="-18.25" width="224.6875" height="36.5"/><text class="label"><tspan xml:space="preserve" text-anchor="middle" alignment-baseline="central">Report USDz Conversion Output</tspan></text></g></g><g class="node-container" transform="translate(434.193359375,1371.8740119934082)"><g class="node state Task NotYetStarted"><rect class="shape" rx="5" ry="5" x="-57.4765625" y="-18.25" width="114.953125" height="36.5"/><text class="label"><tspan xml:space="preserve" text-anchor="middle" alignment-baseline="central">Report Success</tspan></text></g></g></g><g class="edges"><g class="edge"><path class="path" marker-end="url(#arrowhead30)" d="M119.994140625,98L119.994140625,100.08333333333331C119.994140625,102.16666666666666,119.994140625,106.33333333333331,119.994140625,110.49999999999999C119.994140625,114.66666666666666,119.994140625,118.83333333333333,119.994140625,120.91666666666666L119.994140625,123" style="fill: none;"/><defs><marker id="arrowhead30" viewBox="0 0 10 10" refX="9" refY="5" markerUnits="strokeWidth" markerWidth="8" markerHeight="6" orient="auto"><path d="M 0 0 L 10 5 L 0 10 z"/></marker></defs></g><g class="edge"><path class="path" marker-end="url(#arrowhead31)" d="M119.994140625,44.11328125L119.994140625,44.92773437499999C119.994140625,45.7421875,119.994140625,47.37109375,119.994140625,50.26888020833333C119.994140625,53.166666666666664,119.994140625,57.33333333333333,119.994140625,59.416666666666664L119.994140625,61.5" style="fill: none;"/><defs><marker id="arrowhead31" viewBox="0 0 10 10" refX="9" refY="5" markerUnits="strokeWidth" markerWidth="8" markerHeight="6" orient="auto"><path d="M 0 0 L 10 5 L 0 10 z"/></marker></defs></g><g class="edge"><path class="path" marker-end="url(#arrowhead32)" d="M119.994140625,159.5L119.994140625,161.58333333333331C119.994140625,163.66666666666666,119.994140625,167.83333333333331,119.994140625,172C119.994140625,176.16666666666666,119.994140625,180.33333333333331,119.994140625,182.41666666666666L119.994140625,184.5" style="fill: none;"/><defs><marker id="arrowhead32" viewBox="0 0 10 10" refX="9" refY="5" markerUnits="strokeWidth" markerWidth="8" markerHeight="6" orient="auto"><path d="M 0 0 L 10 5 L 0 10 z"/></marker></defs></g><g class="edge"><path class="path" marker-end="url(#arrowhead33)" d="M119.994140625,221L119.994140625,223.0833333333333C119.994140625,225.16666666666663,119.994140625,229.33333333333331,119.994140625,233.5C119.994140625,237.66666666666666,119.994140625,241.83333333333331,119.994140625,243.91666666666666L119.994140625,246" style="fill: none;"/><defs><marker id="arrowhead33" viewBox="0 0 10 10" refX="9" refY="5" markerUnits="strokeWidth" markerWidth="8" markerHeight="6" orient="auto"><path d="M 0 0 L 10 5 L 0 10 z"/></marker></defs></g><g class="edge"><path class="path" marker-end="url(#arrowhead34)" d="M161.07286902947155,282.5L165.7622215870596,284.5833333333333C170.45157414464768,286.66666666666663,179.83027925982384,290.8333333333333,184.51963181741192,295C189.208984375,299.16666666666663,189.208984375,303.3333333333333,189.20898437499997,305.41666666666663L189.208984375,307.5" style="fill: none;"/><defs><marker id="arrowhead34" viewBox="0 0 10 10" refX="9" refY="5" markerUnits="strokeWidth" markerWidth="8" markerHeight="6" orient="auto"><path d="M 0 0 L 10 5 L 0 10 z"/></marker></defs></g><g class="edge"><path class="path" marker-end="url(#arrowhead35)" d="M42.37715955284553,282.5L33.516773585704605,284.5833333333333C24.656387618563684,286.66666666666663,6.935615684281842,290.8333333333333,-1.9247702828590785,298.0416666666667C-10.78515625,305.25,-10.78515625,315.5,-10.785156249999998,325.75C-10.78515625,336,-10.78515625,346.25,-10.785156249999998,356.50433349609375C-10.78515625,366.7586669921875,-10.78515625,377.01733398437494,-10.785156249999998,387.2760009765625C-10.78515625,397.53466796874994,-10.78515625,407.79333496093744,-10.785156249999998,418.0520017941792C-10.78515625,428.310668627421,-10.78515625,438.5693353017171,-10.785156249999998,448.8280019760131C-10.78515625,459.0866686503092,-10.78515625,469.3453353246053,-10.785156249999998,479.60400199890137C-10.78515625,489.8626686731974,-10.78515625,500.1213353474934,-10.785156249999998,510.3800020217895C-10.78515625,520.6386686960856,-10.78515625,530.8973353703816,-10.785156249999998,541.1560022036234C-10.78515625,551.4146690368652,-10.78515625,561.6733360290527,-10.785156249999998,571.9320030212402C-10.78515625,582.1906700134277,-10.78515625,592.4493370056152,-10.785156249999998,602.7080039978027C-10.78515625,612.9666709899902,-10.78515625,623.2253379821777,-10.785156249999998,633.4840049743652C-10.78515625,643.7426719665527,-10.78515625,654.0013389587402,-10.785156249999998,664.260005791982C-10.78515625,674.5186726252238,-10.78515625,684.7773392995198,-10.785156249999998,695.0360059738158C-10.78515625,705.2946726481119,-10.78515625,715.553339322408,-10.785156249999998,725.8120059967041C-10.78515625,736.0706726710001,-10.78515625,746.3293393452961,-10.785156249999998,756.5880060195923C-10.78515625,766.8466726938883,-10.78515625,777.1053393681843,-10.785156249999998,787.364006201426C-10.78515625,797.6226730346679,-10.78515625,807.8813400268554,-10.785156249999998,818.1400070190427C-10.78515625,828.3986740112304,-10.78515625,838.6573410034179,-10.785156249999998,848.9160079956052C-10.78515625,859.1746749877929,-10.78515625,869.4333419799804,-10.785156249999998,879.6920089721677C-10.78515625,889.9506759643554,-10.78515625,900.2093429565429,-10.785156249999998,910.4680097897846C-10.78515625,920.7266766230264,-10.78515625,930.9853432973225,-10.785156249999998,941.2440099716187C-10.78515625,951.5026766459147,-10.78515625,961.7613433202107,-10.785156249999998,972.0200099945068C-10.78515625,982.2786766688029,-10.78515625,992.5373433430989,-10.785156249999998,1002.7960100173949C-10.78515625,1013.0546766916909,-10.78515625,1023.3133433659871,-10.785156249999998,1033.572010199229C-10.78515625,1043.8306770324707,-10.78515625,1054.0893440246582,-10.785156249999998,1064.3480110168457C-10.78515625,1074.6066780090332,-10.78515625,1084.8653450012207,-10.785156249999998,1095.1196784973145C-10.78515625,1105.3740119934082,-10.78515625,1115.6240119934082,-10.785156249999998,1125.8740119934082C-10.78515625,1136.1240119934082,-10.78515625,1146.3740119934082,-10.785156249999998,1156.6240119934082C-10.78515625,1166.8740119934082,-10.78515625,1177.1240119934082,-10.785156249999998,1187.3740119934082C-10.78515625,1197.6240119934082,-10.78515625,1207.8740119934082,-10.785156249999998,1218.1240119934082C-10.78515625,1228.3740119934082,-10.78515625,1238.6240119934082,-10.785156249999998,1248.8740119934082C-10.78515625,1259.1240119934082,-10.78515625,1269.3740119934082,-6.720115599593495,1276.5823453267415C-2.655074949186991,1283.7906786600747,5.475006351626017,1287.9573453267415,9.540047002032521,1290.040678660075L13.605087652439025,1292.1240119934082" style="fill: none;"/><defs><marker id="arrowhead35" viewBox="0 0 10 10" refX="9" refY="5" markerUnits="strokeWidth" markerWidth="8" markerHeight="6" orient="auto"><path d="M 0 0 L 10 5 L 0 10 z"/></marker></defs></g><g class="edge"><path class="path" marker-end="url(#arrowhead36)" d="M189.208984375,344L189.20898437499997,346.0833333333333C189.208984375,348.16666666666663,189.208984375,352.3333333333333,189.20898437499997,356.5C189.208984375,360.66666666666663,189.208984375,364.8333333333333,189.20898437499997,366.9166666666667L189.208984375,369" style="fill: none;"/><defs><marker id="arrowhead36" viewBox="0 0 10 10" refX="9" refY="5" markerUnits="strokeWidth" markerWidth="8" markerHeight="6" orient="auto"><path d="M 0 0 L 10 5 L 0 10 z"/></marker></defs></g><g class="edge"><path class="path" marker-end="url(#arrowhead37)" d="M189.208984375,405.552001953125L189.20898437499997,407.63533528645826C189.208984375,409.71866861979163,189.208984375,413.88533528645826,189.20898437499997,418.05200195312494C189.208984375,422.21866861979163,189.208984375,426.3853352864583,189.20898437499997,428.46866861979163L189.208984375,430.552001953125" style="fill: none;"/><defs><marker id="arrowhead37" viewBox="0 0 10 10" refX="9" refY="5" markerUnits="strokeWidth" markerWidth="8" markerHeight="6" orient="auto"><path d="M 0 0 L 10 5 L 0 10 z"/></marker></defs></g><g class="edge"><path class="path" marker-end="url(#arrowhead38)" d="M189.208984375,467.10400199890137L189.20898437499997,469.1873353322347C189.208984375,471.270668665568,189.208984375,475.4373353322347,189.20898437499997,479.60400199890137C189.208984375,483.770668665568,189.208984375,487.9373353322346,189.20898437499997,490.020668665568L189.208984375,492.10400199890137" style="fill: none;"/><defs><marker id="arrowhead38" viewBox="0 0 10 10" refX="9" refY="5" markerUnits="strokeWidth" markerWidth="8" markerHeight="6" orient="auto"><path d="M 0 0 L 10 5 L 0 10 z"/></marker></defs></g><g class="edge"><path class="path" marker-end="url(#arrowhead39)" d="M231.9619384538854,528.6560020446777L236.8354695449045,530.739335378011C241.7090006359236,532.8226687113444,251.4560628179618,536.989335378011,256.3295939089809,541.1560020446777C261.203125,545.3226687113444,261.203125,549.489335378011,261.203125,551.5726687113444L261.203125,553.6560020446777" style="fill: none;"/><defs><marker id="arrowhead39" viewBox="0 0 10 10" refX="9" refY="5" markerUnits="strokeWidth" markerWidth="8" markerHeight="6" orient="auto"><path d="M 0 0 L 10 5 L 0 10 z"/></marker></defs></g><g class="edge"><path class="path" marker-end="url(#arrowhead40)" d="M120.45468132184764,528.6560020446777L112.6171823515397,530.739335378011C104.77968338123176,532.8226687113444,89.10468544061588,536.989335378011,81.26718647030793,544.2020022074381C73.4296875,551.4146690368652,73.4296875,561.6733360290527,73.4296875,571.9320030212402C73.4296875,582.1906700134277,73.4296875,592.4493370056152,73.4296875,602.7080039978027C73.4296875,612.9666709899902,73.4296875,623.2253379821777,73.4296875,633.4840049743652C73.4296875,643.7426719665527,73.4296875,654.0013389587402,73.4296875,664.260005791982C73.4296875,674.5186726252238,73.4296875,684.7773392995198,73.4296875,695.0360059738158C73.4296875,705.2946726481119,73.4296875,715.553339322408,73.4296875,725.8120059967041C73.4296875,736.0706726710001,73.4296875,746.3293393452961,73.4296875,756.5880060195923C73.4296875,766.8466726938883,73.4296875,777.1053393681843,73.4296875,787.364006201426C73.4296875,797.6226730346679,73.4296875,807.8813400268554,73.4296875,818.1400070190427C73.4296875,828.3986740112304,73.4296875,838.6573410034179,73.4296875,848.9160079956052C73.4296875,859.1746749877929,73.4296875,869.4333419799804,73.4296875,879.6920089721677C73.4296875,889.9506759643554,73.4296875,900.2093429565429,73.4296875,910.4680097897846C73.4296875,920.7266766230264,73.4296875,930.9853432973225,73.4296875,941.2440099716187C73.4296875,951.5026766459147,73.4296875,961.7613433202107,73.4296875,972.0200099945068C73.4296875,982.2786766688029,73.4296875,992.5373433430989,73.4296875,1002.7960100173949C73.4296875,1013.0546766916909,73.4296875,1023.3133433659871,73.4296875,1033.572010199229C73.4296875,1043.8306770324707,73.4296875,1054.0893440246582,73.4296875,1064.3480110168457C73.4296875,1074.6066780090332,73.4296875,1084.8653450012207,73.4296875,1095.1196784973145C73.4296875,1105.3740119934082,73.4296875,1115.6240119934082,73.4296875,1125.8740119934082C73.4296875,1136.1240119934082,73.4296875,1146.3740119934082,73.4296875,1156.6240119934082C73.4296875,1166.8740119934082,73.4296875,1177.1240119934082,73.4296875,1187.3740119934082C73.4296875,1197.6240119934082,73.4296875,1207.8740119934082,73.4296875,1218.1240119934082C73.4296875,1228.3740119934082,73.4296875,1238.6240119934082,73.4296875,1248.8740119934082C73.4296875,1259.1240119934082,73.4296875,1269.3740119934082,71.7891154302168,1276.5823453267415C70.1485433604336,1283.7906786600747,66.86739922086721,1287.9573453267415,65.22682715108401,1290.040678660075L63.58625508130081,1292.1240119934082" style="fill: none;"/><defs><marker id="arrowhead40" viewBox="0 0 10 10" refX="9" refY="5" markerUnits="strokeWidth" markerWidth="8" markerHeight="6" orient="auto"><path d="M 0 0 L 10 5 L 0 10 z"/></marker></defs></g><g class="edge"><path class="path" marker-end="url(#arrowhead41)" d="M261.203125,590.2080039978027L261.203125,592.291337331136C261.203125,594.3746706644694,261.203125,598.541337331136,261.203125,602.7080039978027C261.203125,606.8746706644694,261.203125,611.041337331136,261.203125,613.1246706644694L261.203125,615.2080039978027" style="fill: none;"/><defs><marker id="arrowhead41" viewBox="0 0 10 10" refX="9" refY="5" markerUnits="strokeWidth" markerWidth="8" markerHeight="6" orient="auto"><path d="M 0 0 L 10 5 L 0 10 z"/></marker></defs></g><g class="edge"><path class="path" marker-end="url(#arrowhead42)" d="M261.203125,651.7600059509277L261.203125,653.843339284261C261.203125,655.9266726175944,261.203125,660.093339284261,261.203125,664.2600059509277C261.203125,668.4266726175944,261.203125,672.593339284261,261.203125,674.6766726175944L261.203125,676.7600059509277" style="fill: none;"/><defs><marker id="arrowhead42" viewBox="0 0 10 10" refX="9" refY="5" markerUnits="strokeWidth" markerWidth="8" markerHeight="6" orient="auto"><path d="M 0 0 L 10 5 L 0 10 z"/></marker></defs></g><g class="edge"><path class="path" marker-end="url(#arrowhead43)" d="M261.203125,713.3120059967041L261.203125,715.3953393300374C261.203125,717.4786726633707,261.203125,721.6453393300374,261.203125,725.8120059967041C261.203125,729.9786726633707,261.203125,734.1453393300374,261.203125,736.2286726633707L261.203125,738.3120059967041" style="fill: none;"/><defs><marker id="arrowhead43" viewBox="0 0 10 10" refX="9" refY="5" markerUnits="strokeWidth" markerWidth="8" markerHeight="6" orient="auto"><path d="M 0 0 L 10 5 L 0 10 z"/></marker></defs></g><g class="edge"><path class="path" marker-end="url(#arrowhead44)" d="M307.28830655694185,774.8640060424805L312.54168775578484,776.9473393758137C317.7950689546279,779.0306727091471,328.3018313523139,783.1973393758137,333.55521255115696,787.3640060424804C338.80859375,791.530672709147,338.80859375,795.6973393758137,338.80859374999994,797.7806727091471L338.80859375,799.8640060424805" style="fill: none;"/><defs><marker id="arrowhead44" viewBox="0 0 10 10" refX="9" refY="5" markerUnits="strokeWidth" markerWidth="8" markerHeight="6" orient="auto"><path d="M 0 0 L 10 5 L 0 10 z"/></marker></defs></g><g class="edge"><path class="path" marker-end="url(#arrowhead45)" d="M201.35641228150595,774.8640060424805L194.53431492208827,776.9473393758137C187.71221756267062,779.0306727091471,174.0680228438353,783.1973393758137,167.24592548441765,790.4100062052407C160.423828125,797.6226730346679,160.423828125,807.8813400268554,160.423828125,818.1400070190427C160.423828125,828.3986740112304,160.423828125,838.6573410034179,160.423828125,848.9160079956052C160.423828125,859.1746749877929,160.423828125,869.4333419799804,160.423828125,879.6920089721677C160.423828125,889.9506759643554,160.423828125,900.2093429565429,160.423828125,910.4680097897846C160.423828125,920.7266766230264,160.423828125,930.9853432973225,160.423828125,941.2440099716187C160.423828125,951.5026766459147,160.423828125,961.7613433202107,160.423828125,972.0200099945068C160.423828125,982.2786766688029,160.423828125,992.5373433430989,160.423828125,1002.7960100173949C160.423828125,1013.0546766916909,160.423828125,1023.3133433659871,160.423828125,1033.572010199229C160.423828125,1043.8306770324707,160.423828125,1054.0893440246582,160.423828125,1064.3480110168457C160.423828125,1074.6066780090332,160.423828125,1084.8653450012207,160.423828125,1095.1196784973145C160.423828125,1105.3740119934082,160.423828125,1115.6240119934082,160.423828125,1125.8740119934082C160.423828125,1136.1240119934082,160.423828125,1146.3740119934082,160.423828125,1156.6240119934082C160.423828125,1166.8740119934082,160.423828125,1177.1240119934082,160.423828125,1187.3740119934082C160.423828125,1197.6240119934082,160.423828125,1207.8740119934082,160.423828125,1218.1240119934082C160.423828125,1228.3740119934082,160.423828125,1238.6240119934082,160.423828125,1248.8740119934082C160.423828125,1259.1240119934082,160.423828125,1269.3740119934082,150.09147135416666,1277.3559751469584C139.75911458333331,1285.3379383005088,119.09440104166666,1291.0518646076093,108.76204427083331,1293.9088277611595L98.4296875,1296.76579091471" style="fill: none;"/><defs><marker id="arrowhead45" viewBox="0 0 10 10" refX="9" refY="5" markerUnits="strokeWidth" markerWidth="8" markerHeight="6" orient="auto"><path d="M 0 0 L 10 5 L 0 10 z"/></marker></defs></g><g class="edge"><path class="path" marker-end="url(#arrowhead46)" d="M338.80859375,836.4160079956055L338.80859374999994,838.4993413289387C338.80859375,840.5826746622721,338.80859375,844.7493413289387,338.80859374999994,848.9160079956054C338.80859375,853.082674662272,338.80859375,857.2493413289387,338.80859374999994,859.3326746622721L338.80859375,861.4160079956055" style="fill: none;"/><defs><marker id="arrowhead46" viewBox="0 0 10 10" refX="9" refY="5" markerUnits="strokeWidth" markerWidth="8" markerHeight="6" orient="auto"><path d="M 0 0 L 10 5 L 0 10 z"/></marker></defs></g><g class="edge"><path class="path" marker-end="url(#arrowhead47)" d="M338.80859375,897.9680099487305L338.80859374999994,900.0513432820637C338.80859375,902.1346766153971,338.80859375,906.3013432820637,338.80859374999994,910.4680099487304C338.80859375,914.634676615397,338.80859375,918.8013432820637,338.80859374999994,920.8846766153971L338.80859375,922.9680099487305" style="fill: none;"/><defs><marker id="arrowhead47" viewBox="0 0 10 10" refX="9" refY="5" markerUnits="strokeWidth" markerWidth="8" markerHeight="6" orient="auto"><path d="M 0 0 L 10 5 L 0 10 z"/></marker></defs></g><g class="edge"><path class="path" marker-end="url(#arrowhead48)" d="M338.80859375,959.5200099945068L338.80859374999994,961.6033433278401C338.80859375,963.6866766611735,338.80859375,967.8533433278401,338.80859374999994,972.0200099945068C338.80859375,976.1866766611735,338.80859375,980.3533433278401,338.80859374999994,982.4366766611734L338.80859375,984.5200099945068" style="fill: none;"/><defs><marker id="arrowhead48" viewBox="0 0 10 10" refX="9" refY="5" markerUnits="strokeWidth" markerWidth="8" markerHeight="6" orient="auto"><path d="M 0 0 L 10 5 L 0 10 z"/></marker></defs></g><g class="edge"><path class="path" marker-end="url(#arrowhead49)" d="M386.5442311723349,1021.0720100402832L391.9857525394457,1023.1553433736163C397.4272739065566,1025.2386767069497,408.3103166407783,1029.4053433736165,413.7518380078891,1033.5720100402832C419.193359375,1037.7386767069497,419.193359375,1041.9053433736165,419.19335937499994,1043.9886767069497L419.193359375,1046.0720100402832" style="fill: none;"/><defs><marker id="arrowhead49" viewBox="0 0 10 10" refX="9" refY="5" markerUnits="strokeWidth" markerWidth="8" markerHeight="6" orient="auto"><path d="M 0 0 L 10 5 L 0 10 z"/></marker></defs></g><g class="edge"><path class="path" marker-end="url(#arrowhead50)" d="M287.86947136616425,1021.0720100402832L282.0627756176369,1023.1553433736163C276.2560798691095,1025.2386767069497,264.64268837205475,1029.4053433736165,258.8359926235274,1036.6180102030437C253.029296875,1043.8306770324707,253.029296875,1054.0893440246582,253.02929687499997,1064.3480110168457C253.029296875,1074.6066780090332,253.029296875,1084.8653450012207,253.02929687499997,1095.1196784973145C253.029296875,1105.3740119934082,253.029296875,1115.6240119934082,253.02929687499997,1125.8740119934082C253.029296875,1136.1240119934082,253.029296875,1146.3740119934082,253.02929687499997,1156.6240119934082C253.029296875,1166.8740119934082,253.029296875,1177.1240119934082,253.02929687499997,1187.3740119934082C253.029296875,1197.6240119934082,253.029296875,1207.8740119934082,253.02929687499997,1218.1240119934082C253.029296875,1228.3740119934082,253.029296875,1238.6240119934082,253.02929687499997,1248.8740119934082C253.029296875,1259.1240119934082,253.029296875,1269.3740119934082,227.26269531249997,1278.3864840833337C201.49609375,1287.3989561732592,149.962890625,1295.1739003531102,124.19628906249997,1299.061372443036L98.4296875,1302.9488445329614" style="fill: none;"/><defs><marker id="arrowhead50" viewBox="0 0 10 10" refX="9" refY="5" markerUnits="strokeWidth" markerWidth="8" markerHeight="6" orient="auto"><path d="M 0 0 L 10 5 L 0 10 z"/></marker></defs></g><g class="edge"><path class="path" marker-end="url(#arrowhead51)" d="M419.193359375,1082.6240119934082L419.19335937499994,1084.7073453267415C419.193359375,1086.7906786600747,419.193359375,1090.9573453267415,419.19335937499994,1095.1240119934082C419.193359375,1099.2906786600747,419.193359375,1103.4573453267415,419.19335937499994,1105.5406786600747L419.193359375,1107.6240119934082" style="fill: none;"/><defs><marker id="arrowhead51" viewBox="0 0 10 10" refX="9" refY="5" markerUnits="strokeWidth" markerWidth="8" markerHeight="6" orient="auto"><path d="M 0 0 L 10 5 L 0 10 z"/></marker></defs></g><g class="edge"><path class="path" marker-end="url(#arrowhead52)" d="M419.193359375,1144.1240119934082L419.19335937499994,1146.2073453267415C419.193359375,1148.2906786600747,419.193359375,1152.4573453267415,419.19335937499994,1156.6240119934082C419.193359375,1160.7906786600747,419.193359375,1164.9573453267415,419.19335937499994,1167.0406786600747L419.193359375,1169.1240119934082" style="fill: none;"/><defs><marker id="arrowhead52" viewBox="0 0 10 10" refX="9" refY="5" markerUnits="strokeWidth" markerWidth="8" markerHeight="6" orient="auto"><path d="M 0 0 L 10 5 L 0 10 z"/></marker></defs></g><g class="edge"><path class="path" marker-end="url(#arrowhead53)" d="M419.193359375,1205.6240119934082L419.19335937499994,1207.7073453267415C419.193359375,1209.7906786600747,419.193359375,1213.9573453267415,419.19335937499994,1218.1240119934082C419.193359375,1222.2906786600747,419.193359375,1226.4573453267415,419.19335937499994,1228.5406786600747L419.193359375,1230.6240119934082" style="fill: none;"/><defs><marker id="arrowhead53" viewBox="0 0 10 10" refX="9" refY="5" markerUnits="strokeWidth" markerWidth="8" markerHeight="6" orient="auto"><path d="M 0 0 L 10 5 L 0 10 z"/></marker></defs></g><g class="edge"><path class="path" marker-end="url(#arrowhead54)" d="M428.0957983993902,1267.1240119934082L429.11205856199183,1269.2073453267415C430.12831872459344,1271.2906786600747,432.1608390497967,1275.4573453267415,433.17709921239833,1279.6240119934082C434.193359375,1283.7906786600747,434.193359375,1287.9573453267415,434.19335937499994,1290.040678660075L434.193359375,1292.1240119934082" style="fill: none;"/><defs><marker id="arrowhead54" viewBox="0 0 10 10" refX="9" refY="5" markerUnits="strokeWidth" markerWidth="8" markerHeight="6" orient="auto"><path d="M 0 0 L 10 5 L 0 10 z"/></marker></defs></g><g class="edge"><path class="path" marker-end="url(#arrowhead55)" d="M377.1861344004065,1267.1240119934082L372.39078908367213,1269.2073453267415C367.59544376693765,1271.2906786600747,358.00475313346885,1275.4573453267415,311.5453453167344,1281.8226748739269C265.0859375,1288.1880044211123,181.7578125,1296.7519968488164,140.09374999999997,1301.0339930626685L98.4296875,1305.3159892765207" style="fill: none;"/><defs><marker id="arrowhead55" viewBox="0 0 10 10" refX="9" refY="5" markerUnits="strokeWidth" markerWidth="8" markerHeight="6" orient="auto"><path d="M 0 0 L 10 5 L 0 10 z"/></marker></defs></g><g class="edge"><path class="path" marker-end="url(#arrowhead56)" d="M434.193359375,1328.6240119934082L434.19335937499994,1330.7073453267415C434.193359375,1332.7906786600747,434.193359375,1336.9573453267415,434.19335937499994,1341.1240119934082C434.193359375,1345.2906786600747,434.193359375,1349.4573453267415,434.19335937499994,1351.540678660075L434.193359375,1353.6240119934082" style="fill: none;"/><defs><marker id="arrowhead56" viewBox="0 0 10 10" refX="9" refY="5" markerUnits="strokeWidth" markerWidth="8" markerHeight="6" orient="auto"><path d="M 0 0 L 10 5 L 0 10 z"/></marker></defs></g><g class="edge"><path class="path" marker-end="url(#arrowhead57)" d="M49.21484375,1328.6240119934082L49.214843749999986,1330.7073453267415C49.21484374999999,1332.7906786600747,49.21484374999999,1336.9573453267415,49.214843749999986,1344.165678660075C49.21484374999999,1351.3740119934082,49.21484374999999,1361.6240119934082,49.214843749999986,1371.8740119934082C49.21484374999999,1382.1240119934082,49.21484374999999,1392.3740119934082,79.15425419058641,1402.0666012681672C109.09366463117283,1411.7591905429265,168.97248551234566,1420.8943690924448,198.9118959529321,1425.4619583672038L228.8513063935185,1430.029547641963" style="fill: none;"/><defs><marker id="arrowhead57" viewBox="0 0 10 10" refX="9" refY="5" markerUnits="strokeWidth" markerWidth="8" markerHeight="6" orient="auto"><path d="M 0 0 L 10 5 L 0 10 z"/></marker></defs></g><g class="edge"><path class="path" marker-end="url(#arrowhead58)" d="M434.193359375,1390.1240119934082L434.19335937499994,1392.2073453267415C434.193359375,1394.2906786600747,434.193359375,1398.4573453267415,407.26846659729875,1405.0545855707896C380.3435738195975,1411.6518258148376,326.4937882641951,1420.679639636267,299.5688954864939,1425.1935465469817L272.64400270879264,1429.7074534576964" style="fill: none;"/><defs><marker id="arrowhead58" viewBox="0 0 10 10" refX="9" refY="5" markerUnits="strokeWidth" markerWidth="8" markerHeight="6" orient="auto"><path d="M 0 0 L 10 5 L 0 10 z"/></marker></defs></g></g></g><style xmlns="http://www.w3.org/1999/xhtml">.node &gt; .shape {stroke: #555555;stroke-width: 0.6px;fill: #FFFFFF;} path {stroke: #555;background-color: #555;stroke-width: 1px;} .node.state.NotYetStarted &gt; .shape,.node.state.Container &gt; .shape {stroke-dasharray: 5 2;} .node.state.Failed &gt; .shape,rect.legend.Failed {fill: #DE322F;} .node.state.CaughtError &gt; .shape,rect.legend.CaughtError {fill: #FFA500;} .node.state.Succeeded &gt; .shape,rect.legend.Succeeded {fill: #2BD62E;} .node.state.InProgress &gt; .shape,rect.legend.InProgress {fill: #53c9ed;} .node.state.Cancelled &gt; .shape,rect.legend.Cancelled {fill: #dddddd;} .node.anchor &gt; .shape {fill: #FFDA75;} .node.state.hovered:not(.selected):not(.NotYetStarted) &gt; .shape,.node.selected &gt; .shape {stroke: #555555;stroke-width: 2px;} .node.state.Container.Failed &gt; .shape {fill: #EE9592;} .node.state.Container.CaughtError &gt; .shape {fill: #FFD27F;} .node.state.Container.Succeeded &gt; .shape {fill: #91EA9A;} .node.state.Container.InProgress &gt; .shape {fill :#A9E4F7;} .node.state.Container.Cancelled &gt; .shape {fill: #EEEEEE;} marker {fill: #555555;} .node.anchor,.node.state.NotYetStarted {cursor: default;} .node.state {cursor: pointer;} tspan .label {font-weight: normal;font-size: 12px;text-shadow: none;} </style></svg>